<?xml version="1.0" encoding="UTF-8" standalone="no"?>
<!DOCTYPE svg PUBLIC "-//W3C//DTD SVG 1.1//EN" "http://www.w3.org/Graphics/SVG/1.1/DTD/svg11.dtd">
<svg width="100%" height="100%" viewBox="0 0 1920 1080" version="1.1" xmlns="http://www.w3.org/2000/svg" xmlns:xlink="http://www.w3.org/1999/xlink" xml:space="preserve" xmlns:serif="http://www.serif.com/" style="fill-rule:evenodd;clip-rule:evenodd;stroke-linecap:round;stroke-linejoin:round;stroke-miterlimit:1.5;">
    <g transform="matrix(0.731864,0,0,0.731864,278.99,224.272)">
        <path d="M881.704,492.334L950.978,492.334C978.774,540.478 1017.61,607.74 1045.4,655.883L1010.77,715.876L821.916,715.876L787.279,655.883C815.075,607.74 853.908,540.478 881.704,492.334Z" style="stroke:rgb(49,49,49);stroke-width:1.37px;"/>
    </g>
    <g transform="matrix(-0.731864,-8.96275e-17,8.96275e-17,-0.731864,1620.26,1272.85)">
        <path d="M881.704,492.334L950.978,492.334C978.774,540.478 1017.61,607.74 1045.4,655.883L1010.77,715.876L821.916,715.876L787.279,655.883C815.075,607.74 853.908,540.478 881.704,492.334Z" style="stroke:rgb(49,49,49);stroke-width:1.37px;"/>
    </g>
    <g transform="matrix(0.731864,0,0,0.731864,158.964,15.71)">
        <path d="M881.704,492.334L950.978,492.334C978.774,540.478 1017.61,607.74 1045.4,655.883L1010.77,715.876L821.916,715.876L787.279,655.883C815.075,607.74 853.908,540.478 881.704,492.334Z" style="stroke:rgb(49,49,49);stroke-width:1.37px;"/>
    </g>
    <g transform="matrix(-0.731864,-8.96275e-17,8.96275e-17,-0.731864,1500.24,1064.29)">
        <path d="M881.704,492.334L950.978,492.334C978.774,540.478 1017.61,607.74 1045.4,655.883L1010.77,715.876L821.916,715.876L787.279,655.883C815.075,607.74 853.908,540.478 881.704,492.334Z" style="stroke:rgb(49,49,49);stroke-width:1.37px;"/>
    </g>
    <g transform="matrix(0.731864,0,0,0.731864,399.015,15.71)">
        <path d="M881.704,492.334L950.978,492.334C978.774,540.478 1017.61,607.74 1045.4,655.883L1010.77,715.876L821.916,715.876L787.279,655.883C815.075,607.74 853.908,540.478 881.704,492.334Z" style="stroke:rgb(49,49,49);stroke-width:1.37px;"/>
    </g>
    <g transform="matrix(-0.731864,-8.96275e-17,8.96275e-17,-0.731864,1740.29,1064.29)">
        <path d="M881.704,492.334L950.978,492.334C978.774,540.478 1017.61,607.74 1045.4,655.883L1010.77,715.876L821.916,715.876L787.279,655.883C815.075,607.74 853.908,540.478 881.704,492.334Z" style="stroke:rgb(49,49,49);stroke-width:1.37px;"/>
    </g>
    <g transform="matrix(0.731864,0,0,0.731864,278.99,-192.852)">
        <path d="M881.704,492.334L950.978,492.334C978.774,540.478 1017.61,607.74 1045.4,655.883L1010.77,715.876L821.916,715.876L787.279,655.883C815.075,607.74 853.908,540.478 881.704,492.334Z" style="stroke:rgb(49,49,49);stroke-width:1.37px;"/>
    </g>
    <g transform="matrix(-0.731864,-8.96275e-17,8.96275e-17,-0.731864,1620.26,855.728)">
        <path d="M881.704,492.334L950.978,492.334C978.774,540.478 1017.61,607.74 1045.4,655.883L1010.77,715.876L821.916,715.876L787.279,655.883C815.075,607.74 853.908,540.478 881.704,492.334Z" style="stroke:rgb(49,49,49);stroke-width:1.37px;"/>
    </g>
    <g transform="matrix(0.731864,0,0,0.731864,519.098,-192.852)">
        <path d="M881.704,492.334L950.978,492.334C978.774,540.478 1017.61,607.74 1045.4,655.883L1010.77,715.876L821.916,715.876L787.279,655.883C815.075,607.74 853.908,540.478 881.704,492.334Z" style="stroke:rgb(49,49,49);stroke-width:1.37px;"/>
    </g>
    <g transform="matrix(-0.731864,-8.96275e-17,8.96275e-17,-0.731864,1860.37,855.728)">
        <path d="M881.704,492.334L950.978,492.334C978.774,540.478 1017.61,607.74 1045.4,655.883L1010.77,715.876L821.916,715.876L787.279,655.883C815.075,607.74 853.908,540.478 881.704,492.334Z" style="stroke:rgb(49,49,49);stroke-width:1.37px;"/>
    </g>
    <g transform="matrix(0.731864,0,0,0.731864,38.3101,-192.852)">
        <path d="M881.704,492.334L950.978,492.334C978.774,540.478 1017.61,607.74 1045.4,655.883L1010.77,715.876L821.916,715.876L787.279,655.883C815.075,607.74 853.908,540.478 881.704,492.334Z" style="stroke:rgb(49,49,49);stroke-width:1.37px;"/>
    </g>
    <g transform="matrix(-0.731864,-8.96275e-17,8.96275e-17,-0.731864,1379.58,855.728)">
        <path d="M881.704,492.334L950.978,492.334C978.774,540.478 1017.61,607.74 1045.4,655.883L1010.77,715.876L821.916,715.876L787.279,655.883C815.075,607.74 853.908,540.478 881.704,492.334Z" style="stroke:rgb(49,49,49);stroke-width:1.37px;"/>
    </g>
</svg>
